<svg width="48" height="48" viewBox="0 0 48 48" fill="none" xmlns="http://www.w3.org/2000/svg">
<circle cx="24" cy="24" r="24" fill="#3861FB"/>
<path d="M18.75 36.25C19.7165 36.25 20.5 35.4665 20.5 34.5C20.5 33.5335 19.7165 32.75 18.75 32.75C17.7835 32.75 17 33.5335 17 34.5C17 35.4665 17.7835 36.25 18.75 36.25Z" fill="#FAF5F1"/>
<path d="M31 36.25C31.9665 36.25 32.75 35.4665 32.75 34.5C32.75 33.5335 31.9665 32.75 31 32.75C30.0335 32.75 29.25 33.5335 29.25 34.5C29.25 35.4665 30.0335 36.25 31 36.25Z" fill="#FAF5F1"/>
<path d="M14.3575 12.4535C14.3179 12.2552 14.2108 12.0768 14.0545 11.9485C13.8981 11.8203 13.7022 11.7501 13.5 11.75H10V13.5H12.7825L16.1425 30.2965C16.1821 30.4948 16.2892 30.6732 16.4455 30.8015C16.6019 30.9297 16.7978 30.9999 17 31H32.75V29.25H17.7175L17.0175 25.75H32.75C32.949 25.75 33.1421 25.6821 33.2974 25.5575C33.4527 25.433 33.5608 25.2592 33.604 25.0649L35.5885 16.125H33.7974L32.0482 24H16.6675L14.3575 12.4535Z" fill="#FAF5F1"/>
<path d="M28.8878 18.2372L25.75 15.0995V22.25H24V15.0995L20.8622 18.2372L19.625 17L24.875 11.75L30.125 17L28.8878 18.2372Z" fill="#FAF5F1"/>
</svg>
