<svg width="648" height="283" viewBox="0 0 648 283" fill="none" xmlns="http://www.w3.org/2000/svg">
<path d="M25.1986 240.05H0V282C0 282.552 0.447724 283 1.00001 283H647C647.552 283 648 282.552 648 282V11.4309L619.577 47.0626C619.07 47.6984 618.057 47.4951 617.834 46.7128L604.743 0.726216C604.621 0.296448 604.228 0 603.781 0H567.415C567.149 0 566.895 0.105552 566.707 0.293398L541.806 25.23C541.512 25.5246 541.066 25.6061 540.687 25.4346L510.742 11.8985C510.193 11.6504 509.551 11.9403 509.374 12.5161L486.553 86.7908C486.317 87.5569 485.322 87.7487 484.818 87.1249L459.303 55.4889C458.85 54.9271 457.969 55.0157 457.637 55.6564L452.949 64.6982C452.667 65.2406 451.97 65.4062 451.475 65.0482L437.509 54.9471C437.028 54.5995 436.352 54.7442 436.056 55.2582L417.227 87.9415C417.006 88.3259 416.558 88.5185 416.126 88.4145L394.07 83.097C393.552 82.9722 393.028 83.2747 392.876 83.785L369.576 162.427C369.49 162.72 369.274 162.957 368.99 163.071L334.693 176.852C334.227 177.04 333.694 176.852 333.448 176.414L309.102 133.071C308.713 132.377 307.709 132.394 307.343 133.1L296.521 153.971C296.406 154.194 296.21 154.365 295.974 154.451L273.083 162.729C272.799 162.831 272.577 163.057 272.478 163.342L258.978 202.399C258.87 202.712 258.614 202.951 258.294 203.038L227.523 211.383C227.311 211.441 227.123 211.568 226.989 211.743L206.199 239.082C205.818 239.583 205.074 239.612 204.656 239.141L188.256 220.691C187.927 220.32 187.376 220.247 186.961 220.519L138.857 252.036C138.516 252.259 138.073 252.253 137.738 252.02L121.094 240.454C120.746 240.212 120.282 240.217 119.938 240.465L104.97 251.291C104.799 251.414 104.594 251.481 104.384 251.481H73.5101C73.2459 251.481 72.9924 251.376 72.805 251.19L42.2827 220.836C41.8591 220.415 41.1632 220.457 40.7929 220.925L25.9832 239.67C25.7936 239.91 25.5045 240.05 25.1986 240.05Z" fill="url(#paint0_linear)"/>
<defs>
<linearGradient id="paint0_linear" x1="324" y1="0" x2="324" y2="283" gradientUnits="userSpaceOnUse">
<stop stop-color="#00BBFD" stop-opacity="0.2"/>
<stop offset="1" stop-color="#00BBFD" stop-opacity="0"/>
</linearGradient>
</defs>
</svg>
