<svg width="48" height="48" viewBox="0 0 48 48" fill="none" xmlns="http://www.w3.org/2000/svg">
<circle cx="24" cy="24" r="24" fill="#3861FB"/>
<path d="M23.9998 10.6665C16.6398 10.6665 10.6665 16.6398 10.6665 23.9998C10.6665 31.3598 16.6398 37.3332 23.9998 37.3332C31.3598 37.3332 37.3332 31.3598 37.3332 23.9998C37.3332 16.6398 31.3598 10.6665 23.9998 10.6665ZM23.9998 34.6665C18.1198 34.6665 13.3332 29.8798 13.3332 23.9998C13.3332 18.1198 18.1198 13.3332 23.9998 13.3332C29.8798 13.3332 34.6665 18.1198 34.6665 23.9998C34.6665 29.8798 29.8798 34.6665 23.9998 34.6665ZM16.6665 31.3332L26.6798 26.6798L31.3332 16.6665L21.3198 21.3198L16.6665 31.3332ZM23.9998 22.5332C24.8132 22.5332 25.4665 23.1865 25.4665 23.9998C25.4665 24.8132 24.8132 25.4665 23.9998 25.4665C23.1865 25.4665 22.5332 24.8132 22.5332 23.9998C22.5332 23.1865 23.1865 22.5332 23.9998 22.5332Z" fill="#FAF5F1"/>
</svg>
