<svg width="765" height="249" viewBox="0 0 765 249" fill="none" xmlns="http://www.w3.org/2000/svg">
<g clip-path="url(#clip0)">
<g opacity="0.7">
<path opacity="0.7" d="M455.085 247.898H195.587L197.384 126.223L271.598 113.925H376.52L453.288 122.635L455.085 247.898Z" fill="url(#paint0_linear)"/>
</g>
<path d="M451.491 246.364H199.18L200.977 127.757L271.835 115.459H377.797L449.695 124.169L451.491 246.364Z" fill="#EEEEEE"/>
<g opacity="0.7">
<path opacity="0.7" d="M295.904 70.376H276.97V107.781H295.904V70.376Z" fill="url(#paint1_linear)"/>
</g>
<g opacity="0.7">
<path opacity="0.7" d="M276.961 155.377V114.948H194.715L180.748 155.377V159.521H277.481V155.377H276.961Z" fill="url(#paint2_linear)"/>
</g>
<path d="M276.97 155.421H181.77L195.587 115.459H276.97V155.421Z" fill="white"/>
<path opacity="0.1" d="M276.97 155.421H181.77L195.587 115.459H276.97V155.421Z" fill="black"/>
<path d="M277.48 155.421H181.77V159.521H277.48V155.421Z" fill="white"/>
<g opacity="0.7">
<path opacity="0.7" d="M454.125 114.437H371.659V155.324H371.139V159.521H468.136V155.324L454.125 114.437Z" fill="url(#paint3_linear)"/>
</g>
<path d="M371.65 155.421H466.85L453.033 115.459H371.65V155.421Z" fill="white"/>
<path opacity="0.1" d="M371.65 155.421H466.85L453.033 115.459H371.65V155.421Z" fill="black"/>
<path d="M371.139 159.521H466.85V155.421H371.139V159.521Z" fill="white"/>
<path opacity="0.5" d="M259.057 175.662H207.362V207.936H259.057V175.662Z" fill="white"/>
<path opacity="0.1" d="M262.122 205.636H204.288V211.269H262.122V205.636Z" fill="black"/>
<path d="M262.122 205.124H204.288V210.757H262.122V205.124Z" fill="#CCCCCC"/>
<g opacity="0.1">
<path opacity="0.1" d="M259.057 175.662H207.362V188.471H259.057V175.662Z" fill="black"/>
</g>
<path opacity="0.5" d="M441.778 175.662H390.083V207.936H441.778V175.662Z" fill="white"/>
<path opacity="0.1" d="M444.842 205.636H387.009V211.269H444.842V205.636Z" fill="black"/>
<path d="M444.842 205.124H387.009V210.757H444.842V205.124Z" fill="#CCCCCC"/>
<g opacity="0.1">
<path opacity="0.1" d="M441.778 175.662H390.083V188.471H441.778V175.662Z" fill="black"/>
</g>
<g opacity="0.7">
<path opacity="0.7" d="M387.608 117.857L324.473 68.9831L263.372 117.822L258.581 111.819L324.402 59.2153L392.302 111.783L387.608 117.857Z" fill="url(#paint4_linear)"/>
</g>
<path opacity="0.1" d="M268.524 159.521H200.449V160.287H268.524V159.521Z" fill="black"/>
<path opacity="0.1" d="M450.223 159.521H381.382V160.287H450.223V159.521Z" fill="black"/>
<path d="M295.393 70.8872H277.481V107.772H295.393V70.8872Z" fill="#CCCCCC"/>
<g opacity="0.7">
<path opacity="0.7" d="M381.382 246.364H266.736V105.982L324.552 104.704L381.382 105.982V246.364Z" fill="url(#paint5_linear)"/>
</g>
<path d="M380.096 246.364H268.524V105.982L324.314 66.2764L380.096 105.982V246.364Z" fill="white"/>
<path d="M338.379 199.226H310.232V246.364H338.379V199.226Z" fill="#CCCCCC"/>
<path opacity="0.1" d="M353.227 156.964H295.393V162.598H353.227V156.964Z" fill="black"/>
<path opacity="0.5" d="M350.162 126.991H298.467V159.265H350.162V126.991Z" fill="white"/>
<path d="M353.227 156.452H295.393V162.085H353.227V156.452Z" fill="#CCCCCC"/>
<g opacity="0.1">
<path opacity="0.1" d="M350.162 126.991H298.467V139.8H350.162V126.991Z" fill="black"/>
</g>
<path d="M387.608 118.369L324.473 69.4944L263.372 118.333L258.581 112.33L324.402 59.7266L392.302 112.295L387.608 118.369Z" fill="white"/>
<path d="M334.292 224.844C335.421 224.844 336.335 223.929 336.335 222.799C336.335 221.67 335.421 220.754 334.292 220.754C333.164 220.754 332.249 221.67 332.249 222.799C332.249 223.929 333.164 224.844 334.292 224.844Z" fill="#E0E0E0"/>
<g opacity="0.7">
<path opacity="0.7" d="M115.209 148.51H0V249H115.209V148.51Z" fill="url(#paint6_linear)"/>
</g>
<path d="M113.994 149.629H1.9727V247.863H113.994V149.629Z" fill="#EEEEEE"/>
<g opacity="0.7">
<path opacity="0.7" d="M37.1553 118.827H23.2672V146.253H37.1553V118.827Z" fill="url(#paint7_linear)"/>
</g>
<path d="M36.7766 119.206H23.6459V146.252H36.7766V119.206Z" fill="#CCCCCC"/>
<g opacity="0.7">
<path opacity="0.7" d="M99.8236 247.872H15.7639V144.939L58.1592 143.996L99.8236 144.939V247.872Z" fill="url(#paint8_linear)"/>
</g>
<path d="M98.8901 247.872H17.0761V144.94L57.9831 115.821L98.8901 144.94V247.872Z" fill="white"/>
<path d="M68.3045 213.305H47.6617V247.863H68.3045V213.305Z" fill="#CCCCCC"/>
<path opacity="0.5" d="M76.9351 160.34H39.0312V184.011H76.9351V160.34Z" fill="white"/>
<path d="M79.1807 181.939H36.7766V186.074H79.1807V181.939Z" fill="#CCCCCC"/>
<g opacity="0.1">
<path opacity="0.1" d="M76.9351 160.34H39.0312V169.729H76.9351V160.34Z" fill="black"/>
</g>
<g opacity="0.7">
<path opacity="0.7" d="M104.385 153.65L58.0976 117.814L13.2981 153.623L9.78422 149.215L58.0448 110.646L107.829 149.189L104.385 153.65Z" fill="url(#paint9_linear)"/>
</g>
<path d="M104.385 154.019L58.0976 118.183L13.2981 153.993L9.78422 149.594L58.0448 111.016L107.829 149.567L104.385 154.019Z" fill="white"/>
<path d="M65.3014 232.091C66.1283 232.091 66.7986 231.42 66.7986 230.592C66.7986 229.765 66.1283 229.094 65.3014 229.094C64.4746 229.094 63.8043 229.765 63.8043 230.592C63.8043 231.42 64.4746 232.091 65.3014 232.091Z" fill="#E0E0E0"/>
<g opacity="0.7">
<path opacity="0.7" d="M754.265 248.189H540.773L542.244 88.7392L603.301 72.624H689.633L752.794 84.0404L754.265 248.189Z" fill="url(#paint10_linear)"/>
</g>
<path d="M751.314 246.179H543.724L545.203 90.7489L603.503 74.6426H690.681L749.835 86.0501L751.314 246.179Z" fill="#EEEEEE"/>
<g opacity="0.7">
<path opacity="0.7" d="M623.301 3.91406H607.722V34.6897H623.301V3.91406Z" fill="url(#paint11_linear)"/>
</g>
<g opacity="0.7">
<path opacity="0.7" d="M607.722 98.7183V65.4565H540.051L528.559 98.7183V102.13H608.145V98.7183H607.722Z" fill="url(#paint12_linear)"/>
</g>
<path d="M607.722 98.7625H529.404L540.773 65.8799H607.722V98.7625Z" fill="white"/>
<path opacity="0.1" d="M607.722 98.7625H529.404L540.773 65.8799H607.722V98.7625Z" fill="black"/>
<path d="M608.153 98.7627H529.404V102.139H608.153V98.7627Z" fill="white"/>
<g opacity="0.7">
<path opacity="0.7" d="M753.481 65.8799H685.634V99.5207H685.203V102.976H765V99.5207L753.481 65.8799Z" fill="url(#paint13_linear)"/>
</g>
<path d="M685.626 99.6004H763.952L752.583 66.7266H685.626V99.6004Z" fill="white"/>
<path opacity="0.1" d="M685.626 99.6004H763.952L752.583 66.7266H685.626V99.6004Z" fill="black"/>
<path d="M685.203 102.976L763.952 102.976V99.5997L685.203 99.5997V102.976Z" fill="white"/>
<path opacity="0.5" d="M592.979 188.753H550.452V215.306H592.979V188.753Z" fill="white"/>
<path opacity="0.1" d="M595.516 213.411H547.933V218.048H595.516V213.411Z" fill="black"/>
<path d="M595.516 212.997H547.933V217.634H595.516V212.997Z" fill="#CCCCCC"/>
<g opacity="0.1">
<path opacity="0.1" d="M592.979 188.753H550.452V199.288H592.979V188.753Z" fill="black"/>
</g>
<path opacity="0.5" d="M743.318 188.753H700.791V215.306H743.318V188.753Z" fill="white"/>
<path opacity="0.1" d="M745.846 213.411H698.263V218.048H745.846V213.411Z" fill="black"/>
<path d="M745.846 212.997H698.263V217.634H745.846V212.997Z" fill="#CCCCCC"/>
<g opacity="0.1">
<path opacity="0.1" d="M743.318 188.753H700.791V199.288H743.318V188.753Z" fill="black"/>
</g>
<path opacity="0.5" d="M743.318 126.788H700.791V153.341H743.318V126.788Z" fill="white"/>
<path opacity="0.1" d="M745.846 151.454H698.263V156.091H745.846V151.454Z" fill="black"/>
<path d="M745.846 151.031H698.263V155.668H745.846V151.031Z" fill="#CCCCCC"/>
<g opacity="0.1">
<path opacity="0.1" d="M743.318 126.788H700.791V137.323H743.318V126.788Z" fill="black"/>
</g>
<path opacity="0.5" d="M594.248 126.788H551.72V153.341H594.248V126.788Z" fill="white"/>
<path opacity="0.1" d="M596.775 151.454H549.193V156.091H596.775V151.454Z" fill="black"/>
<path d="M596.775 151.031H549.193V155.668H596.775V151.031Z" fill="#CCCCCC"/>
<g opacity="0.1">
<path opacity="0.1" d="M594.248 126.788H551.72V137.323H594.248V126.788Z" fill="black"/>
</g>
<g opacity="0.7">
<path opacity="0.7" d="M698.747 48.2484L646.815 8.03994L596.537 48.222L592.592 43.2852L646.753 0L702.614 43.2499L698.747 48.2484Z" fill="url(#paint14_linear)"/>
</g>
<path opacity="0.1" d="M600.773 102.13H544.772V102.765H600.773V102.13Z" fill="black"/>
<path opacity="0.1" d="M750.266 102.976H693.631V103.611H750.266V102.976Z" fill="black"/>
<path d="M622.887 4.3374H608.144V34.6899H622.887V4.3374Z" fill="#CCCCCC"/>
<g opacity="0.7">
<path opacity="0.7" d="M693.842 246.928H599.514V42.8709L647.088 41.0107L693.842 42.8709V246.928Z" fill="url(#paint15_linear)"/>
</g>
<path d="M692.574 246.929H600.773V42.0601L646.674 7.50244L693.419 43.3295L692.574 246.929Z" fill="white"/>
<path d="M658.254 208.148H635.093V246.929H658.254V208.148Z" fill="#CCCCCC"/>
<path opacity="0.1" d="M670.469 173.37H622.887V178.007H670.469V173.37Z" fill="black"/>
<path opacity="0.5" d="M667.942 148.713H625.414V175.266H667.942V148.713Z" fill="white"/>
<path d="M670.469 172.947H622.887V177.584H670.469V172.947Z" fill="#CCCCCC"/>
<g opacity="0.1">
<path opacity="0.1" d="M667.942 148.713H625.414V159.248H667.942V148.713Z" fill="black"/>
</g>
<path opacity="0.5" d="M667.942 96.6558H625.414V123.209H667.942V96.6558Z" fill="white"/>
<path d="M670.469 120.89H622.887V125.527H670.469V120.89Z" fill="#CCCCCC"/>
<g opacity="0.1">
<path opacity="0.1" d="M667.942 96.6558H625.414V107.191H667.942V96.6558Z" fill="black"/>
</g>
<path opacity="0.5" d="M667.942 44.5898H625.414V71.1428H667.942V44.5898Z" fill="white"/>
<path d="M670.469 68.8335H622.887V73.4706H670.469V68.8335Z" fill="#CCCCCC"/>
<g opacity="0.1">
<path opacity="0.1" d="M667.942 44.5898H625.414V55.1246H667.942V44.5898Z" fill="black"/>
</g>
<path d="M698.747 49.7294L646.815 9.5121L596.537 49.6942L592.592 44.7574L646.753 1.47217L702.614 44.7221L698.747 49.7294Z" fill="white"/>
<path d="M654.89 229.218C655.819 229.218 656.572 228.464 656.572 227.534C656.572 226.604 655.819 225.85 654.89 225.85C653.961 225.85 653.208 226.604 653.208 227.534C653.208 228.464 653.961 229.218 654.89 229.218Z" fill="#E0E0E0"/>
</g>
<defs>
<linearGradient id="paint0_linear" x1="325.336" y1="247.898" x2="325.336" y2="113.925" gradientUnits="userSpaceOnUse">
<stop stop-color="#808080" stop-opacity="0.25"/>
<stop offset="0.54" stop-color="#808080" stop-opacity="0.12"/>
<stop offset="1" stop-color="#808080" stop-opacity="0.1"/>
</linearGradient>
<linearGradient id="paint1_linear" x1="6435.38" y1="4643.15" x2="6435.38" y2="3056.42" gradientUnits="userSpaceOnUse">
<stop stop-color="#808080" stop-opacity="0.25"/>
<stop offset="0.54" stop-color="#808080" stop-opacity="0.12"/>
<stop offset="1" stop-color="#808080" stop-opacity="0.1"/>
</linearGradient>
<linearGradient id="paint2_linear" x1="25346.7" y1="8180.3" x2="25346.7" y2="5926.73" gradientUnits="userSpaceOnUse">
<stop stop-color="#808080" stop-opacity="0.25"/>
<stop offset="0.54" stop-color="#808080" stop-opacity="0.12"/>
<stop offset="1" stop-color="#808080" stop-opacity="0.1"/>
</linearGradient>
<linearGradient id="paint3_linear" x1="46590.1" y1="8272.31" x2="46590.1" y2="5966.74" gradientUnits="userSpaceOnUse">
<stop stop-color="#808080" stop-opacity="0.25"/>
<stop offset="0.54" stop-color="#808080" stop-opacity="0.12"/>
<stop offset="1" stop-color="#808080" stop-opacity="0.1"/>
</linearGradient>
<linearGradient id="paint4_linear" x1="49673.6" y1="7899.09" x2="49673.6" y2="3998.21" gradientUnits="userSpaceOnUse">
<stop stop-color="#808080" stop-opacity="0.25"/>
<stop offset="0.54" stop-color="#808080" stop-opacity="0.12"/>
<stop offset="1" stop-color="#808080" stop-opacity="0.1"/>
</linearGradient>
<linearGradient id="paint5_linear" x1="42452.7" y1="39692.9" x2="42452.7" y2="16929.6" gradientUnits="userSpaceOnUse">
<stop stop-color="#808080" stop-opacity="0.25"/>
<stop offset="0.54" stop-color="#808080" stop-opacity="0.12"/>
<stop offset="1" stop-color="#808080" stop-opacity="0.1"/>
</linearGradient>
<linearGradient id="paint6_linear" x1="7535.81" y1="28532" x2="7535.81" y2="17077.1" gradientUnits="userSpaceOnUse">
<stop stop-color="#808080" stop-opacity="0.25"/>
<stop offset="0.54" stop-color="#808080" stop-opacity="0.12"/>
<stop offset="1" stop-color="#808080" stop-opacity="0.1"/>
</linearGradient>
<linearGradient id="paint7_linear" x1="499.629" y1="4668.75" x2="499.629" y2="3815.54" gradientUnits="userSpaceOnUse">
<stop stop-color="#808080" stop-opacity="0.25"/>
<stop offset="0.54" stop-color="#808080" stop-opacity="0.12"/>
<stop offset="1" stop-color="#808080" stop-opacity="0.1"/>
</linearGradient>
<linearGradient id="paint8_linear" x1="5531.76" y1="29350.7" x2="5531.76" y2="17111" gradientUnits="userSpaceOnUse">
<stop stop-color="#808080" stop-opacity="0.25"/>
<stop offset="0.54" stop-color="#808080" stop-opacity="0.12"/>
<stop offset="1" stop-color="#808080" stop-opacity="0.1"/>
</linearGradient>
<linearGradient id="paint9_linear" x1="6557.21" y1="7605.65" x2="6557.21" y2="5507.96" gradientUnits="userSpaceOnUse">
<stop stop-color="#808080" stop-opacity="0.25"/>
<stop offset="0.54" stop-color="#808080" stop-opacity="0.12"/>
<stop offset="1" stop-color="#808080" stop-opacity="0.1"/>
</linearGradient>
<linearGradient id="paint10_linear" x1="157512" y1="49499.4" x2="157512" y2="14535.7" gradientUnits="userSpaceOnUse">
<stop stop-color="#808080" stop-opacity="0.25"/>
<stop offset="0.54" stop-color="#808080" stop-opacity="0.12"/>
<stop offset="1" stop-color="#808080" stop-opacity="0.1"/>
</linearGradient>
<linearGradient id="paint11_linear" x1="11496.2" y1="1214.94" x2="11496.2" y2="140.558" gradientUnits="userSpaceOnUse">
<stop stop-color="#808080" stop-opacity="0.25"/>
<stop offset="0.54" stop-color="#808080" stop-opacity="0.12"/>
<stop offset="1" stop-color="#808080" stop-opacity="0.1"/>
</linearGradient>
<linearGradient id="paint12_linear" x1="51890.9" y1="4314.07" x2="51890.9" y2="2788.46" gradientUnits="userSpaceOnUse">
<stop stop-color="#808080" stop-opacity="0.25"/>
<stop offset="0.54" stop-color="#808080" stop-opacity="0.12"/>
<stop offset="1" stop-color="#808080" stop-opacity="0.1"/>
</linearGradient>
<linearGradient id="paint13_linear" x1="66387" y1="4399.13" x2="66387" y2="2838.1" gradientUnits="userSpaceOnUse">
<stop stop-color="#808080" stop-opacity="0.25"/>
<stop offset="0.54" stop-color="#808080" stop-opacity="0.12"/>
<stop offset="1" stop-color="#808080" stop-opacity="0.1"/>
</linearGradient>
<linearGradient id="paint14_linear" x1="81498.1" y1="2640.64" x2="81498.1" y2="0" gradientUnits="userSpaceOnUse">
<stop stop-color="#808080" stop-opacity="0.25"/>
<stop offset="0.54" stop-color="#808080" stop-opacity="0.12"/>
<stop offset="1" stop-color="#808080" stop-opacity="0.1"/>
</linearGradient>
<linearGradient id="paint15_linear" x1="69864.7" y1="57718.5" x2="69864.7" y2="9620.3" gradientUnits="userSpaceOnUse">
<stop stop-color="#808080" stop-opacity="0.25"/>
<stop offset="0.54" stop-color="#808080" stop-opacity="0.12"/>
<stop offset="1" stop-color="#808080" stop-opacity="0.1"/>
</linearGradient>
<clipPath id="clip0">
<rect width="765" height="249" fill="white"/>
</clipPath>
</defs>
</svg>
