<svg width="453" height="446" viewBox="0 0 453 446" fill="none" xmlns="http://www.w3.org/2000/svg">
<path opacity="0.18" d="M452.668 305.355C452.539 309.223 452.307 313.09 451.92 317.034C449.186 345.586 439.141 374.099 417.489 392.467C391.775 414.264 355.306 417.474 321.61 416.237C287.914 414.999 253.354 410.436 221.102 420.271C203.448 425.659 187.29 435.172 169.674 440.664C136.146 451.105 98.4264 445.936 68.3281 427.928C38.2298 409.921 16.0236 379.629 6.70012 345.831C4.95732 339.474 3.60505 333.017 2.65091 326.495C-2.66207 290.79 2.54774 253.666 1.7869 217.251C1.11633 184.884 -4.18375 151.369 7.42227 121.116C15.1596 100.969 29.8864 84.3406 46.7409 71.1797C105.712 25.2262 179.978 0.47709 254.36 0.0130434C298.669 -0.27054 343.958 6.79327 382.838 28.0363C395.476 34.9325 407.482 43.5045 416.367 54.7447C422.982 63.1491 427.702 72.8941 431.584 82.8453C438.299 100.123 442.637 118.231 444.479 136.675C446.852 160.637 444.982 184.819 445.937 208.86C447.265 241.111 453.609 273.117 452.668 305.355Z" fill="#FEEBDC"/>
<path d="M451.92 317.034L451.765 318.555C449.483 340.288 442.932 361.904 430.178 378.919C426.48 383.886 422.228 388.414 417.502 392.415C391.788 414.213 355.319 417.422 321.623 416.185C287.927 414.947 253.367 410.384 221.115 420.22C203.461 425.608 187.303 435.121 169.687 440.612C136.159 451.053 98.4393 445.884 68.341 427.876C48.5409 415.854 32.1224 398.999 20.6273 378.894C14.609 368.499 9.9418 357.38 6.73879 345.805C4.99598 339.448 3.64372 332.991 2.68958 326.469L173.259 322.873L451.92 317.034Z" fill="#FAF5F1"/>
<path d="M451.765 318.555C449.483 340.288 442.932 361.904 430.178 378.919H20.5887C14.5703 368.525 9.90313 357.405 6.70012 345.83C4.95732 339.474 3.60506 333.017 2.65091 326.495L173.221 322.899L451.765 318.555Z" fill="url(#paint0_linear)"/>
<path d="M106.241 408.683C141.089 408.683 169.339 400.361 169.339 390.095C169.339 379.83 141.089 371.508 106.241 371.508C71.393 371.508 43.143 379.83 43.143 390.095C43.143 400.361 71.393 408.683 106.241 408.683Z" fill="url(#paint1_linear)"/>
<path d="M118.75 374.588L119.511 382.49C119.511 382.49 116.48 387.079 112.521 387.363C108.562 387.646 107.221 385.764 107.221 385.764L107.879 374.163" fill="#EACBC6"/>
<path d="M107.221 385.764L107.492 381.098L119.098 377.979L119.988 384.321C117.817 385.968 115.251 387.017 112.547 387.363C108.575 387.659 107.221 385.764 107.221 385.764Z" fill="white"/>
<path d="M81.7266 375.426L80.9529 383.547C80.9529 383.547 84.0607 388.252 88.1228 388.549C92.1849 388.845 93.5648 386.899 93.5648 386.899L92.8942 374.962" fill="#EACBC6"/>
<path d="M93.5648 386.898L93.294 382.103L81.3913 378.894L80.9529 383.534C80.9529 383.534 84.0607 388.239 88.1228 388.535C92.1849 388.832 93.5648 386.898 93.5648 386.898Z" fill="white"/>
<path d="M91.4499 197.877C91.4499 197.877 75.7688 205.508 75.3949 207.957C75.0209 210.406 77.1616 271.596 77.1616 271.596C77.1616 271.596 82.3198 278.208 97.8848 278.208C113.888 278.208 118.015 273.632 118.724 271.493C119.433 269.353 121.987 208.434 121.626 205.817C121.264 203.201 106.783 197.916 106.783 197.916L91.4499 197.877Z" fill="#FEEBDC"/>
<path d="M114.946 226.674L111.735 274.11L118.724 271.493L119.704 256.36L114.946 226.674Z" fill="url(#paint2_linear)"/>
<path d="M100.799 239.925C100.799 239.925 82.3069 240.08 81.1334 238.907C79.9599 237.734 75.5239 207.017 75.3949 207.97C75.137 209.762 76.1686 239.113 76.7618 255.484C83.4886 253.32 90.0886 250.781 96.5307 247.878C98.3021 247.123 99.8225 245.88 100.915 244.295C101.921 242.8 102.501 241.034 100.799 239.925Z" fill="url(#paint3_linear)"/>
<path d="M94.0548 189.215C93.383 192.155 92.5214 195.048 91.4757 197.877C90.444 200.687 92.5589 206.616 98.9293 206.616C105.3 206.616 106.035 199.295 105.919 197.877C105.841 196.859 104.191 193.494 103.778 190.246C103.327 186.753 94.403 186.778 94.0548 189.215Z" fill="#EACBC6"/>
<path d="M95.3959 207.97L98.104 211.76L96.1697 262.921L101.315 268.58L104.913 261.632L100.67 211.128L101.637 207.403L98.7875 205.637L95.3959 207.97Z" fill="#3F3D56"/>
<path d="M102.656 235.066L103.288 225.991L117.86 222.395L113.231 250.676L101.741 252.042L102.656 235.066Z" fill="white"/>
<path d="M93.1779 193.263C93.1779 193.263 93.1779 203.033 98.5682 202.17C103.959 201.306 104.835 193.856 104.835 193.856L93.1779 193.263Z" fill="url(#paint4_linear)"/>
<path d="M79.6375 272.434C79.6375 272.434 76.5039 283.158 78.348 317.472C80.1921 351.786 80.9271 375.787 80.9271 375.787C80.9271 375.787 81.1592 378.584 87.0654 378.662C92.9716 378.739 94.5448 374.794 94.5448 374.794L100.27 286.896L106.306 376.651C106.306 376.651 113.398 380.737 118.93 377.669C121.987 375.98 121.716 313.386 120.336 285.801C120.156 281.3 119.059 276.883 117.112 272.82C117.112 272.82 102.166 282.746 79.6375 272.434Z" fill="#3F3D56"/>
<path d="M121.626 205.818C121.626 205.818 128.77 235.788 129.363 240.879C129.956 245.971 122.193 260.137 120.903 257.443C119.098 253.924 117.293 240.557 117.293 240.557L121.626 205.818Z" fill="#FEEBDC"/>
<path d="M134.534 239.757C134.529 239.998 134.591 240.236 134.714 240.443C134.837 240.651 135.016 240.819 135.23 240.93C135.485 240.995 135.751 241.006 136.01 240.964C136.27 240.922 136.518 240.827 136.739 240.685C140.298 238.997 142.375 236.535 145.031 233.879C147.081 232.072 148.912 230.03 150.486 227.795C151.698 225.771 150.679 216.929 149.506 216.787C148.332 216.645 148.513 219.481 148.719 221.247C148.926 223.013 147.004 225.114 146.527 225.965C146.05 226.815 144.425 225.256 142.968 227.679C141.897 229.471 141.859 230.798 140.285 232.268C138.42 233.984 136.743 235.894 135.282 237.965C134.916 238.404 134.663 238.927 134.547 239.486C134.536 239.576 134.532 239.667 134.534 239.757Z" fill="#EACBC6"/>
<path d="M122.76 241.601C123.005 241.188 140.144 231.289 140.144 231.289C140.144 231.289 142.362 232.642 144.012 236.806C144.012 236.806 123.379 256.721 121.677 257.61C119.975 258.5 122.386 254.388 119.498 248.793C116.609 243.199 122.76 241.601 122.76 241.601Z" fill="#FEEBDC"/>
<path d="M72.7384 389.374C71.2576 390.369 70.0265 391.692 69.1405 393.241C68.7197 394.028 68.5785 394.935 68.7401 395.813C68.9018 396.691 69.3566 397.488 70.0303 398.074C70.6291 398.448 71.3026 398.686 72.0033 398.77C74.9062 399.262 77.886 399.021 80.6719 398.069C83.4578 397.117 85.9614 395.483 87.9552 393.318C88.2758 392.898 88.6742 392.544 89.1287 392.274C90.1345 391.771 91.3983 392.274 92.4815 391.887C93.9903 391.359 94.4545 389.477 94.6738 387.878C94.893 386.28 95.0735 384.333 93.9516 383.109C92.791 385.03 90.2764 385.597 88.0325 385.687C86.6697 385.832 85.2915 385.696 83.9833 385.287C82.7712 384.849 81.7911 383.56 80.3984 383.74C79.0056 383.921 77.8192 385.326 76.8392 386.099L72.7384 389.374Z" fill="#3F3D56"/>
<path d="M128.357 389.374C129.838 390.369 131.069 391.693 131.955 393.241C132.376 394.028 132.517 394.935 132.355 395.813C132.194 396.691 131.739 397.489 131.065 398.075C130.466 398.448 129.793 398.686 129.092 398.771C126.194 399.26 123.22 399.018 120.439 398.068C117.659 397.119 115.159 395.49 113.166 393.331C112.845 392.911 112.447 392.557 111.993 392.287C110.987 391.784 109.723 392.287 108.64 391.9C107.131 391.372 106.667 389.49 106.447 387.891C106.228 386.293 106.048 384.347 107.17 383.122C108.33 385.043 110.845 385.61 113.089 385.7C114.452 385.845 115.83 385.709 117.138 385.301C118.35 384.862 119.33 383.573 120.723 383.754C122.116 383.934 123.302 385.339 124.282 386.113L128.357 389.374Z" fill="#3F3D56"/>
<path d="M93.9 236.896C94.4417 236.522 95.1896 236.367 95.8086 235.929C96.4276 235.491 103.946 230.477 104.526 231.804C104.784 232.41 104.229 233.093 103.701 233.48C103.172 233.867 102.553 234.408 102.669 235.078L110.303 231.315C110.429 231.233 110.579 231.196 110.729 231.211C110.987 231.211 111.09 231.559 111.141 231.83C111.397 233.733 110.902 235.66 109.762 237.205C107.864 239.757 105.232 241.668 102.218 242.684C98.349 243.973 94.8027 245.751 93.8227 242.8C93.3842 241.511 92.6234 239.384 93.1134 237.966C93.2459 237.53 93.5235 237.153 93.9 236.896Z" fill="#EACBC6"/>
<path d="M78.348 205.108C76.1167 206.64 74.1885 208.572 72.661 210.806C70.1722 214.48 66.0585 245.287 67.9542 253.64C68.7537 257.172 97.8332 243.985 97.8332 243.985C97.8332 243.985 97.1626 238.081 94.0806 236.071C94.0806 236.071 79.8181 239.126 78.7478 238.056C77.6774 236.986 78.348 205.108 78.348 205.108Z" fill="#FEEBDC"/>
<path d="M88.3678 176.467C88.3678 176.467 88.0326 189.834 93.1779 193.224C98.3232 196.614 100.374 196.137 104.062 194.423C106.293 193.379 107.93 185.206 108.872 178.955C109.334 176.097 108.781 173.167 107.309 170.674C105.837 168.181 103.538 166.281 100.812 165.304C98.902 164.575 96.7902 164.575 94.8801 165.304C92.6568 166.105 90.7863 167.662 89.5957 169.703C88.4052 171.744 87.9705 174.138 88.3678 176.467Z" fill="#EACBC6"/>
<path d="M108.962 178.439C109.262 177.769 109.474 177.062 109.594 176.338C109.833 173.916 109.565 171.471 108.807 169.158C108.544 167.803 108.07 166.498 107.402 165.291C106.741 164.254 105.803 163.424 104.694 162.893C104.1 162.893 103.559 162.288 103.12 161.888C102.659 161.546 102.133 161.304 101.574 161.175C101.014 161.046 100.435 161.035 99.8707 161.14C98.7359 161.269 97.6398 161.63 96.4921 161.733C94.5448 161.914 92.301 161.398 90.8051 162.661C90.0332 163.54 89.4063 164.537 88.9482 165.613C88.4194 166.503 87.6586 167.237 87.0654 168.075C86.3988 168.883 86.0461 169.903 86.0724 170.95C86.2921 171.87 86.5987 172.768 86.988 173.631C87.2055 175.061 87.339 176.503 87.3878 177.949C87.6973 179.612 88.6774 181.12 88.6774 182.796L89.0255 173.953C89.0042 173.708 89.0534 173.462 89.1674 173.244C89.4382 172.806 90.0443 172.78 90.5472 172.651C91.7465 172.342 92.5976 171.233 93.7582 170.795C94.5685 170.552 95.4208 170.482 96.26 170.589L102.617 170.898C102.999 170.891 103.375 170.98 103.714 171.156C103.956 171.35 104.185 171.561 104.397 171.788C105.106 172.368 106.164 172.252 106.976 172.716C108.085 173.36 108.266 174.856 108.33 176.145L108.562 180.927C108.507 180.078 108.643 179.228 108.962 178.439Z" fill="#3F3D56"/>
<path d="M91.8626 196.833C91.8626 196.833 95.0607 204.49 98.7875 205.65L92.3397 210.097L90.1603 198.496L91.8626 196.833Z" fill="#FEEBDC"/>
<path d="M105.429 196.485L106.718 197.864L105.687 209.788L98.723 205.598C98.723 205.598 104.526 201.551 105.429 196.485Z" fill="#FEEBDC"/>
<path d="M91.8626 196.833C91.8626 196.833 95.0607 204.49 98.7875 205.65L92.3397 210.097L90.1603 198.496L91.8626 196.833Z" fill="url(#paint5_linear)"/>
<path d="M105.429 196.485L106.718 197.864L105.687 209.788L98.723 205.598C98.723 205.598 104.526 201.551 105.429 196.485Z" fill="url(#paint6_linear)"/>
<path d="M249.704 283.584C251.381 299.22 245.836 331.381 228.478 337.723C224.21 339.282 219.58 339.476 215.028 339.618C197.232 340.202 179.428 340.348 161.615 340.056C154.491 340.089 147.375 339.598 140.324 338.586C136.894 338.019 133.348 337.156 130.678 334.926C126.178 331.136 125.443 323.904 128.473 318.852C131.504 313.799 137.616 311.117 143.496 311.311C141.113 311.475 138.73 310.985 136.605 309.892C134.481 308.799 132.696 307.146 131.444 305.111C130.193 303.077 129.522 300.739 129.505 298.351C129.489 295.962 130.126 293.615 131.349 291.563C135.488 284.628 144.683 283.056 152.717 282.192C147.662 276.134 143.896 268.67 143.69 260.781C143.484 252.893 147.43 244.63 154.496 241.111C161.563 237.592 171.493 240.131 174.833 247.285C172.254 233.892 175.761 219.172 185.059 209.182C193.415 200.159 210.334 193.108 222.456 198.509C234.062 203.665 238.382 221.273 240.948 232.281C244.909 249.188 247.833 266.321 249.704 283.584Z" fill="#FEEBDC"/>
<path d="M249.704 283.584C251.381 299.22 245.836 331.381 228.478 337.723C224.21 339.282 219.58 339.476 215.028 339.618C197.232 340.202 179.428 340.348 161.615 340.056C154.491 340.089 147.375 339.598 140.324 338.586C136.894 338.019 133.348 337.156 130.678 334.926C126.178 331.136 125.443 323.904 128.473 318.852C131.504 313.799 137.616 311.117 143.496 311.311C141.113 311.475 138.73 310.985 136.605 309.892C134.481 308.799 132.696 307.146 131.444 305.111C130.193 303.077 129.522 300.739 129.505 298.351C129.489 295.962 130.126 293.615 131.349 291.563C135.488 284.628 144.683 283.056 152.717 282.192C147.662 276.134 143.896 268.67 143.69 260.781C143.484 252.893 147.43 244.63 154.496 241.111C161.563 237.592 171.493 240.131 174.833 247.285C172.254 233.892 175.761 219.172 185.059 209.182C193.415 200.159 210.334 193.108 222.456 198.509C234.062 203.665 238.382 221.273 240.948 232.281C244.909 249.188 247.833 266.321 249.704 283.584Z" fill="url(#paint7_linear)"/>
<path d="M377.513 109.837H351.721V174.275H377.513V109.837Z" fill="#FEEBDC"/>
<path d="M377.513 109.837H351.721V174.275H377.513V109.837Z" fill="url(#paint8_linear)"/>
<path d="M379.782 100.698H349.439C347.787 100.698 346.447 102.037 346.447 103.689V110.057C346.447 111.708 347.787 113.047 349.439 113.047H379.782C381.434 113.047 382.774 111.708 382.774 110.057V103.689C382.774 102.037 381.434 100.698 379.782 100.698Z" fill="#FEEBDC"/>
<path d="M286.715 93.7246L193.776 186.199V212.392V334.294H390.395V212.392V194.938L286.715 93.7246Z" fill="#FEEBDC"/>
<path d="M286.715 93.7246L193.776 186.199V212.392V334.294H390.395V212.392V194.938L286.715 93.7246Z" fill="#FFD7BA"/>
<g style="mix-blend-mode:multiply" opacity="0.2">
<g style="mix-blend-mode:multiply" opacity="0.2">
<path d="M289.41 87.4214L193.789 182.731V197.903L289.41 107.285L390.421 203.008V193.469C390.985 193.472 391.536 193.305 392.004 192.99C392.471 192.675 392.832 192.226 393.04 191.702C393.247 191.178 393.292 190.604 393.168 190.054C393.043 189.505 392.756 189.006 392.342 188.622L289.41 87.4214Z" fill="#FEEBDC"/>
</g>
</g>
<path d="M398.055 334.294H186.129V349.865H398.055V334.294Z" fill="#FEEBDC"/>
<path d="M294.375 235.891H218.626V298.717H294.375V235.891Z" fill="#FEEBDC"/>
<path d="M294.375 235.891H218.626V298.717H294.375V235.891Z" fill="url(#paint9_linear)"/>
<path d="M370.111 233.067H320.153V334.294H370.111V233.067Z" fill="#FEEBDC"/>
<path d="M366.074 239.512H324.202V329.047H366.074V239.512Z" fill="#FEEBDC"/>
<path d="M366.074 239.512H324.202V329.047H366.074V239.512Z" fill="url(#paint10_linear)"/>
<path d="M371.568 227.435H318.98C317.776 227.435 316.8 228.41 316.8 229.613V233.712C316.8 234.915 317.776 235.891 318.98 235.891H371.568C372.771 235.891 373.747 234.915 373.747 233.712V229.613C373.747 228.41 372.771 227.435 371.568 227.435Z" fill="#FEEBDC"/>
<path d="M284.961 87.318L182.48 186.946C181.6 187.843 181.001 188.977 180.757 190.21C180.514 191.442 180.636 192.719 181.108 193.883C181.581 195.048 182.384 196.048 183.418 196.762C184.452 197.476 185.672 197.873 186.929 197.903C188.572 197.905 190.152 197.272 191.339 196.137L285.013 107.04C286.198 105.91 287.772 105.28 289.41 105.28C291.048 105.28 292.622 105.91 293.807 107.04L387.481 196.137C388.664 197.27 390.24 197.903 391.878 197.903C393.135 197.873 394.355 197.476 395.389 196.762C396.423 196.048 397.226 195.048 397.699 193.883C398.172 192.719 398.294 191.442 398.05 190.21C397.806 188.977 397.207 187.843 396.327 186.946L293.859 87.318C292.669 86.1574 291.072 85.5078 289.41 85.5078C287.748 85.5078 286.151 86.1574 284.961 87.318Z" fill="#FEEBDC"/>
<path d="M296.554 233.067H216.447V235.89H296.554V233.067Z" fill="#FEEBDC"/>
<path d="M239.646 235.891H237.093V293.484H239.646V235.891Z" fill="#FEEBDC"/>
<path d="M257.777 235.891H255.224V293.484H257.777V235.891Z" fill="#FEEBDC"/>
<path d="M275.908 235.891H273.355V293.484H275.908V235.891Z" fill="#FEEBDC"/>
<path d="M294.375 266.234H218.626V268.387H294.375V266.234Z" fill="#FEEBDC"/>
<path d="M292.067 294.45C293.292 293.811 294.329 292.864 295.078 291.702C295.826 290.54 296.259 289.204 296.335 287.825C296.335 286.536 295.884 285.066 294.659 284.886C294.137 284.862 293.62 284.983 293.163 285.234C291.77 285.894 290.528 286.833 289.513 287.992C289.887 286.739 290.04 285.431 289.965 284.125C289.969 283.403 289.745 282.697 289.323 282.11C288.901 281.524 288.304 281.086 287.618 280.859C286.931 280.633 286.191 280.63 285.503 280.851C284.814 281.072 284.214 281.505 283.788 282.089C282.805 283.268 282.108 284.657 281.75 286.149C280.942 283.99 279.538 282.103 277.701 280.709C277.394 280.454 277.032 280.273 276.643 280.181C276.193 280.156 275.744 280.263 275.354 280.49C274.216 281.073 273.25 281.944 272.554 283.016C271.857 284.088 271.453 285.324 271.382 286.6C271.257 286.14 270.995 285.729 270.631 285.421C270.268 285.112 269.819 284.921 269.344 284.873C269.111 284.868 268.879 284.916 268.666 285.013C268.453 285.11 268.265 285.254 268.115 285.433C267.966 285.612 267.858 285.823 267.801 286.05C267.743 286.276 267.738 286.513 267.784 286.742C266.887 285.808 265.756 285.131 264.509 284.782C263.262 284.433 261.943 284.424 260.692 284.757C259.458 285.146 258.401 285.958 257.707 287.05C257.014 288.142 256.728 289.443 256.9 290.725C256.594 290.601 256.265 290.545 255.936 290.561C255.606 290.577 255.284 290.665 254.992 290.819C254.699 290.972 254.444 291.187 254.244 291.45C254.043 291.712 253.903 292.014 253.831 292.336C253.728 293 253.771 293.677 253.956 294.323C254.14 294.968 254.463 295.566 254.901 296.074" fill="#FEEBDC"/>
<path d="M219.245 294.321L216.331 291.872C215.692 291.446 215.233 290.799 215.041 290.055C214.912 288.766 216.331 287.928 217.62 288.134C218.821 288.47 219.888 289.167 220.677 290.132C220.315 287.451 220.122 284.319 222.095 282.398C222.884 281.748 223.845 281.34 224.861 281.223C225.877 281.107 226.905 281.286 227.821 281.741C229.639 282.695 231.067 284.254 231.857 286.149C232.747 283.326 234.479 280.844 236.822 279.034C236.984 278.848 237.186 278.7 237.413 278.602C237.64 278.504 237.886 278.457 238.133 278.466C238.38 278.475 238.622 278.538 238.841 278.652C239.061 278.766 239.252 278.927 239.401 279.124C240.38 280.058 241.155 281.186 241.674 282.435C242.194 283.684 242.447 285.028 242.418 286.381C242.786 285.537 243.24 284.734 243.773 283.984C243.903 283.747 244.113 283.565 244.366 283.468C244.765 283.352 245.139 283.661 245.436 283.945C246.21 284.705 246.984 285.711 246.726 286.755C247.152 285.042 248.044 283.48 249.305 282.243C250.594 281.122 252.993 281.019 253.96 282.475C254.399 283.259 254.563 284.166 254.424 285.053C254.249 286.941 253.64 288.763 252.645 290.377C252.645 289.745 253.599 289.501 254.102 289.874C254.33 290.088 254.501 290.356 254.598 290.654C254.695 290.951 254.715 291.269 254.656 291.576C254.656 292.195 254.373 292.8 254.347 293.432" fill="#FEEBDC"/>
<path d="M292.067 294.45C293.292 293.811 294.329 292.864 295.078 291.702C295.826 290.54 296.259 289.204 296.335 287.825C296.335 286.536 295.884 285.066 294.659 284.886C294.137 284.862 293.62 284.983 293.163 285.234C291.77 285.894 290.528 286.833 289.513 287.992C289.887 286.739 290.04 285.431 289.965 284.125C289.969 283.403 289.745 282.697 289.323 282.11C288.901 281.524 288.304 281.086 287.618 280.859C286.931 280.633 286.191 280.63 285.503 280.851C284.814 281.072 284.214 281.505 283.788 282.089C282.805 283.268 282.108 284.657 281.75 286.149C280.942 283.99 279.538 282.103 277.701 280.709C277.394 280.454 277.032 280.273 276.643 280.181C276.193 280.156 275.744 280.263 275.354 280.49C274.216 281.073 273.25 281.944 272.554 283.016C271.857 284.088 271.453 285.324 271.382 286.6C271.257 286.14 270.995 285.729 270.631 285.421C270.268 285.112 269.819 284.921 269.344 284.873C269.111 284.868 268.879 284.916 268.666 285.013C268.453 285.11 268.265 285.254 268.115 285.433C267.966 285.612 267.858 285.823 267.801 286.05C267.743 286.276 267.738 286.513 267.784 286.742C266.887 285.808 265.756 285.131 264.509 284.782C263.262 284.433 261.943 284.424 260.692 284.757C259.458 285.146 258.401 285.958 257.707 287.05C257.014 288.142 256.728 289.443 256.9 290.725C256.594 290.601 256.265 290.545 255.936 290.561C255.606 290.577 255.284 290.665 254.992 290.819C254.699 290.972 254.444 291.187 254.244 291.45C254.043 291.712 253.903 292.014 253.831 292.336C253.728 293 253.771 293.677 253.956 294.323C254.14 294.968 254.463 295.566 254.901 296.074" fill="url(#paint11_linear)"/>
<path d="M294.143 293.483H218.871C216.236 293.483 214.1 295.619 214.1 298.253V306.438C214.1 309.072 216.236 311.207 218.871 311.207H294.143C296.778 311.207 298.914 309.072 298.914 306.438V298.253C298.914 295.619 296.778 293.483 294.143 293.483Z" fill="#FEEBDC"/>
<path d="M219.245 294.321L216.331 291.872C215.692 291.446 215.233 290.799 215.041 290.055C214.912 288.766 216.331 287.928 217.62 288.134C218.821 288.47 219.888 289.167 220.677 290.132C220.315 287.451 220.122 284.319 222.095 282.398C222.884 281.748 223.845 281.34 224.861 281.223C225.877 281.107 226.905 281.286 227.821 281.741C229.639 282.695 231.067 284.254 231.857 286.149C232.747 283.326 234.479 280.844 236.822 279.034C236.984 278.848 237.186 278.7 237.413 278.602C237.64 278.504 237.886 278.457 238.133 278.466C238.38 278.475 238.622 278.538 238.841 278.652C239.061 278.766 239.252 278.927 239.401 279.124C240.38 280.058 241.155 281.186 241.674 282.435C242.194 283.684 242.447 285.028 242.418 286.381C242.786 285.537 243.24 284.734 243.773 283.984C243.903 283.747 244.113 283.565 244.366 283.468C244.765 283.352 245.139 283.661 245.436 283.945C246.21 284.705 246.984 285.711 246.726 286.755C247.152 285.042 248.044 283.48 249.305 282.243C250.594 281.122 252.993 281.019 253.96 282.475C254.399 283.259 254.563 284.166 254.424 285.053C254.249 286.941 253.64 288.763 252.645 290.377C252.645 289.745 253.599 289.501 254.102 289.874C254.33 290.088 254.501 290.356 254.598 290.654C254.695 290.951 254.715 291.269 254.656 291.576C254.656 292.195 254.373 292.8 254.347 293.432" fill="url(#paint12_linear)"/>
<path d="M244.998 303.138H234.036V380.002H244.998V303.138Z" fill="#FEEBDC"/>
<path d="M244.998 303.138H234.036V380.002H244.998V303.138Z" fill="url(#paint13_linear)"/>
<path d="M271.227 307.122H203.616V344.297H271.227V307.122Z" fill="#FEEBDC"/>
<path d="M270.944 307.122H203.332V344.297H270.944V307.122Z" fill="url(#paint14_linear)"/>
<path d="M215.338 322.1C215.038 321.692 214.65 321.357 214.203 321.12C213.693 320.86 213.125 320.731 212.552 320.746C212.207 320.748 211.864 320.8 211.534 320.901C211.199 321 210.885 321.157 210.605 321.365C210.325 321.582 210.092 321.854 209.922 322.164C209.743 322.51 209.654 322.896 209.664 323.286C209.653 323.657 209.738 324.025 209.909 324.355C210.075 324.636 210.299 324.877 210.566 325.064C210.854 325.273 211.172 325.438 211.508 325.554L212.591 325.941C213.068 326.083 213.532 326.25 214.01 326.431C214.469 326.603 214.903 326.837 215.299 327.127C215.687 327.417 216.005 327.792 216.228 328.223C216.488 328.737 216.612 329.309 216.589 329.885C216.604 330.488 216.471 331.086 216.202 331.626C215.966 332.099 215.626 332.513 215.209 332.837C214.788 333.159 214.312 333.399 213.803 333.546C213.284 333.699 212.745 333.777 212.204 333.778C211.771 333.785 211.338 333.742 210.915 333.649C210.515 333.57 210.125 333.444 209.754 333.275C209.382 333.115 209.034 332.902 208.722 332.644C208.402 332.394 208.119 332.099 207.884 331.767L209.071 330.891C209.391 331.397 209.835 331.814 210.36 332.102C210.919 332.441 211.564 332.611 212.217 332.592C212.575 332.59 212.931 332.538 213.274 332.438C213.623 332.325 213.949 332.155 214.242 331.935C214.529 331.712 214.767 331.431 214.938 331.11C215.135 330.765 215.234 330.373 215.222 329.976C215.237 329.566 215.139 329.16 214.938 328.803C214.756 328.491 214.504 328.227 214.203 328.029C213.883 327.802 213.531 327.624 213.158 327.501L211.869 327.075C211.43 326.942 210.999 326.783 210.579 326.598C210.151 326.436 209.754 326.2 209.406 325.902C209.059 325.612 208.778 325.252 208.58 324.845C208.361 324.334 208.254 323.782 208.267 323.226C208.281 322.669 208.414 322.123 208.658 321.623C208.911 321.168 209.259 320.773 209.677 320.463C210.097 320.158 210.569 319.931 211.069 319.792C211.561 319.656 212.068 319.587 212.578 319.586C213.388 319.563 214.192 319.731 214.925 320.076C215.496 320.342 215.999 320.734 216.395 321.223L215.338 322.1Z" fill="white"/>
<path d="M223.888 333.43H222.379L228.22 319.934H229.51L235.313 333.43H233.791L232.295 329.885H225.358L223.888 333.43ZM225.873 328.622H231.805L228.839 321.52L225.873 328.622Z" fill="white"/>
<path d="M243.141 332.206H249.434V333.43H241.761V319.934H243.141V332.206Z" fill="white"/>
<path d="M257.184 332.206H264.418V333.43H255.804V319.934H264.186V321.146H257.184V325.786H263.722V327.011H257.184V332.206Z" fill="white"/>
<defs>
<linearGradient id="paint0_linear" x1="228.208" y1="221.672" x2="225.682" y2="476.782" gradientUnits="userSpaceOnUse">
<stop offset="0.01" stop-color="#E1F1FC"/>
<stop offset="0.12" stop-color="#E1F1FC" stop-opacity="0.75"/>
<stop offset="1" stop-color="#E1F1FC" stop-opacity="0"/>
</linearGradient>
<linearGradient id="paint1_linear" x1="10508.6" y1="9514.77" x2="10496.2" y2="13747.9" gradientUnits="userSpaceOnUse">
<stop offset="0.01"/>
<stop offset="0.12" stop-opacity="0.75"/>
<stop offset="1" stop-opacity="0"/>
</linearGradient>
<linearGradient id="paint2_linear" x1="938.329" y1="9322.49" x2="721.88" y2="9328.22" gradientUnits="userSpaceOnUse">
<stop offset="0.01"/>
<stop offset="0.12" stop-opacity="0.75"/>
<stop offset="1" stop-opacity="0"/>
</linearGradient>
<linearGradient id="paint3_linear" x1="1858.68" y1="9068.93" x2="2910.19" y2="8927.89" gradientUnits="userSpaceOnUse">
<stop offset="0.01"/>
<stop offset="0.12" stop-opacity="0.75"/>
<stop offset="1" stop-opacity="0"/>
</linearGradient>
<linearGradient id="paint4_linear" x1="1295.89" y1="1447.74" x2="1275.71" y2="1736.99" gradientUnits="userSpaceOnUse">
<stop offset="0.01"/>
<stop offset="0.12" stop-opacity="0.75"/>
<stop offset="1" stop-opacity="0"/>
</linearGradient>
<linearGradient id="paint5_linear" x1="940.711" y1="2104.46" x2="935.205" y2="2679.29" gradientUnits="userSpaceOnUse">
<stop offset="0.01"/>
<stop offset="0.12" stop-opacity="0.75"/>
<stop offset="1" stop-opacity="0"/>
</linearGradient>
<linearGradient id="paint6_linear" x1="938.543" y1="2110.21" x2="932.789" y2="2686.71" gradientUnits="userSpaceOnUse">
<stop offset="0.01"/>
<stop offset="0.12" stop-opacity="0.75"/>
<stop offset="1" stop-opacity="0"/>
</linearGradient>
<linearGradient id="paint7_linear" x1="29127.7" y1="38409.1" x2="11539.8" y2="26615.3" gradientUnits="userSpaceOnUse">
<stop offset="0.01"/>
<stop offset="0.12" stop-opacity="0.75"/>
<stop offset="1" stop-opacity="0"/>
</linearGradient>
<linearGradient id="paint8_linear" x1="7640.05" y1="4847.96" x2="7686.73" y2="10009.1" gradientUnits="userSpaceOnUse">
<stop offset="0.01"/>
<stop offset="0.12" stop-opacity="0.75"/>
<stop offset="1" stop-opacity="0"/>
</linearGradient>
<linearGradient id="paint9_linear" x1="259.08" y1="216.272" x2="256.825" y2="260.949" gradientUnits="userSpaceOnUse">
<stop offset="0.02" stop-color="white" stop-opacity="0"/>
<stop offset="0.58" stop-color="white" stop-opacity="0.39"/>
<stop offset="1" stop-color="white"/>
</linearGradient>
<linearGradient id="paint10_linear" x1="11677.4" y1="25303.1" x2="11070.4" y2="20512.9" gradientUnits="userSpaceOnUse">
<stop offset="0.02" stop-color="white" stop-opacity="0"/>
<stop offset="0.58" stop-color="white" stop-opacity="0.39"/>
<stop offset="1" stop-color="white"/>
</linearGradient>
<linearGradient id="paint11_linear" x1="10503.1" y1="3712.86" x2="10467.5" y2="4205.14" gradientUnits="userSpaceOnUse">
<stop offset="0.01"/>
<stop offset="0.12" stop-opacity="0.75"/>
<stop offset="1" stop-opacity="0"/>
</linearGradient>
<linearGradient id="paint12_linear" x1="8576.14" y1="3609.94" x2="8538.01" y2="4100.64" gradientUnits="userSpaceOnUse">
<stop offset="0.01"/>
<stop offset="0.12" stop-opacity="0.75"/>
<stop offset="1" stop-opacity="0"/>
</linearGradient>
<linearGradient id="paint13_linear" x1="2086.6" y1="20617.6" x2="2707.05" y2="20621.2" gradientUnits="userSpaceOnUse">
<stop offset="0.01"/>
<stop offset="0.12" stop-opacity="0.75"/>
<stop offset="1" stop-opacity="0"/>
</linearGradient>
<linearGradient id="paint14_linear" x1="12313.2" y1="8598.33" x2="12558.7" y2="11375.8" gradientUnits="userSpaceOnUse">
<stop offset="0.01"/>
<stop offset="0.12" stop-opacity="0.75"/>
<stop offset="1" stop-opacity="0"/>
</linearGradient>
</defs>
</svg>
