<svg width="48" height="48" viewBox="0 0 48 48" fill="none" xmlns="http://www.w3.org/2000/svg">
<path d="M15 45C16.6569 45 18 43.6569 18 42C18 40.3431 16.6569 39 15 39C13.3431 39 12 40.3431 12 42C12 43.6569 13.3431 45 15 45Z" fill="#132054"/>
<path d="M36 45C37.6569 45 39 43.6569 39 42C39 40.3431 37.6569 39 36 39C34.3431 39 33 40.3431 33 42C33 43.6569 34.3431 45 36 45Z" fill="#132054"/>
<path d="M7.47 4.206C7.40206 3.86608 7.21849 3.56019 6.9505 3.34033C6.6825 3.12047 6.34664 3.00021 6 3H0V6H4.77L10.53 34.794C10.5979 35.1339 10.7815 35.4398 11.0495 35.6597C11.3175 35.8795 11.6534 35.9998 12 36H39V33H13.23L12.03 27H39C39.3412 26.9999 39.6722 26.8835 39.9384 26.67C40.2045 26.4565 40.3899 26.1586 40.464 25.8255L43.866 10.5H40.7955L37.797 24H11.43L7.47 4.206Z" fill="#132054"/>
<path d="M32.379 14.121L27 8.742V21H24V8.742L18.621 14.121L16.5 12L25.5 3L34.5 12L32.379 14.121Z" fill="#132054"/>
</svg>
