<?xml version="1.0" standalone="no"?>
<!DOCTYPE svg PUBLIC "-//W3C//DTD SVG 20010904//EN"
 "http://www.w3.org/TR/2001/REC-SVG-20010904/DTD/svg10.dtd">
<svg version="1.0" xmlns="http://www.w3.org/2000/svg"
 width="181.000000pt" height="181.000000pt" viewBox="0 0 181.000000 181.000000"
 preserveAspectRatio="xMidYMid meet">
<metadata>
Created by potrace 1.11, written by Peter Selinger 2001-2013
</metadata>
<g transform="translate(0.000000,181.000000) scale(0.100000,-0.100000)"
fill="#000000" stroke="none">
<path d="M773 1567 c5 -13 2 -17 -11 -15 -9 2 -16 -3 -14 -10 1 -9 -5 -8 -22
3 -18 12 -26 13 -32 4 -4 -7 -3 -9 4 -5 6 3 13 3 16 -2 3 -5 -13 -7 -34 -6
-22 1 -37 -2 -34 -7 3 -5 -9 -9 -26 -9 -26 0 -31 -3 -26 -16 5 -14 4 -15 -9
-4 -12 10 -15 10 -15 -4 0 -10 -5 -14 -10 -11 -6 4 -8 12 -4 18 3 7 -7 -1 -21
-18 -15 -16 -24 -25 -21 -18 4 6 1 15 -5 19 -8 4 -9 3 -5 -4 4 -7 3 -12 -3
-12 -6 0 -7 -8 -4 -17 6 -16 5 -16 -10 -4 -14 11 -18 11 -23 -3 -3 -9 -11 -13
-18 -9 -6 4 -4 -2 4 -13 8 -10 10 -16 6 -12 -5 4 -16 2 -24 -5 -13 -9 -14 -9
-8 1 4 7 2 12 -5 12 -6 0 -9 -8 -6 -20 4 -17 2 -18 -14 -10 -15 9 -17 8 -12
-6 4 -12 3 -15 -5 -10 -7 4 -12 3 -12 -3 0 -5 3 -11 8 -14 4 -2 2 -2 -5 -1 -7
2 -18 -3 -25 -10 -7 -7 -20 -10 -28 -8 -11 4 -10 1 3 -12 22 -22 21 -25 -3
-19 -16 4 -19 2 -14 -11 4 -11 1 -16 -11 -16 -10 0 -13 5 -9 12 4 7 3 8 -4 4
-9 -5 -9 -13 -2 -26 9 -16 8 -18 -7 -13 -12 5 -15 2 -10 -10 5 -15 -21 -41
-34 -34 -2 1 2 -3 9 -9 10 -9 10 -13 -3 -18 -9 -3 -13 -2 -10 4 3 6 1 10 -4
10 -6 0 -11 -9 -11 -20 0 -19 -11 -25 -35 -20 -5 1 -7 -2 -3 -5 4 -4 3 -16 -3
-26 -8 -15 -6 -17 8 -12 23 8 10 -7 -18 -21 -12 -6 -24 -22 -26 -36 -2 -19 -1
-22 7 -10 5 8 10 10 10 4 0 -5 -7 -19 -16 -30 -8 -10 -13 -14 -10 -7 4 6 1 15
-6 19 -7 4 -10 4 -6 -1 4 -4 2 -15 -5 -23 -8 -11 -8 -14 0 -9 23 14 25 -15 2
-40 -13 -15 -19 -23 -13 -20 6 3 11 0 11 -9 0 -10 -7 -13 -21 -9 -19 5 -19 5
-3 -5 17 -11 17 -12 -1 -28 -10 -9 -13 -14 -6 -9 8 5 12 -1 12 -18 0 -14 -5
-25 -10 -25 -5 0 -6 5 -3 10 3 6 1 10 -5 10 -7 0 -10 -6 -7 -12 2 -7 0 -22 -6
-33 -9 -18 -9 -19 8 -5 17 14 18 14 6 -7 -6 -13 -8 -23 -4 -23 4 0 1 -5 -7
-10 -13 -9 -13 -10 0 -10 13 0 13 -1 0 -10 -12 -8 -12 -10 5 -11 l20 0 -20 -9
c-11 -5 -14 -9 -6 -9 11 -1 11 -4 1 -16 -12 -14 -7 -19 13 -16 5 1 6 -3 2 -9
-3 -6 -11 -8 -16 -5 -5 4 -9 1 -9 -4 0 -6 5 -11 10 -11 6 0 10 -5 10 -11 0 -5
-4 -8 -8 -5 -4 2 -8 -8 -7 -24 0 -15 3 -26 7 -23 5 2 8 -3 8 -11 0 -8 -5 -18
-10 -21 -8 -5 -8 -11 0 -20 6 -7 7 -21 4 -31 -6 -17 -5 -17 10 1 12 14 16 16
15 5 -1 -8 -1 -22 0 -30 1 -13 2 -13 11 0 6 9 10 10 10 3 0 -6 -5 -15 -11 -18
-7 -5 -4 -14 8 -28 10 -11 13 -17 7 -14 -21 12 -24 -23 -4 -35 11 -7 20 -18
20 -25 0 -7 6 -13 13 -14 6 -1 1 -5 -13 -9 -24 -8 -24 -8 -2 -9 13 -1 22 -7
22 -17 0 -10 5 -14 16 -10 8 3 12 2 9 -4 -3 -6 -2 -10 3 -10 5 0 13 -10 19
-22 8 -19 10 -20 16 -4 4 10 3 15 -3 11 -6 -3 -10 -1 -10 5 0 7 7 9 16 6 9 -3
18 -6 20 -6 3 0 2 -6 -1 -12 -4 -7 1 -4 11 7 15 18 16 18 10 1 -5 -14 -2 -17
9 -12 8 3 15 2 15 -3 0 -9 37 -8 46 2 15 15 26 6 13 -10 -13 -15 -12 -15 11
-2 27 15 62 21 55 9 -3 -5 15 -10 40 -12 35 -2 45 0 45 12 1 9 6 5 15 -10 12
-21 14 -22 15 -6 0 17 2 17 25 2 22 -15 25 -15 34 2 10 16 10 16 11 -1 0 -17
1 -17 16 -3 19 20 19 20 38 0 9 -8 16 -11 16 -5 0 6 7 11 15 11 8 0 15 -4 15
-10 0 -5 5 -10 11 -10 6 0 9 6 6 13 -3 8 1 14 9 14 8 0 14 -5 14 -10 0 -5 7
-6 16 -3 8 3 12 2 9 -4 -3 -6 -1 -10 4 -10 6 0 11 6 11 13 0 7 3 8 8 2 9 -12
44 -16 36 -4 -3 5 0 9 5 9 6 0 11 -6 11 -12 0 -9 4 -8 10 2 8 13 10 13 10 1 0
-11 4 -10 13 4 11 14 16 15 22 5 5 -9 4 -11 -3 -6 -7 4 -12 3 -12 -2 0 -5 12
-9 26 -9 18 0 22 2 13 8 -11 7 -10 9 3 9 9 0 19 -6 21 -12 4 -10 6 -10 6 0 1
6 10 12 21 12 11 0 20 -6 20 -12 0 -9 4 -8 10 2 9 13 11 13 20 0 6 -10 10 -11
10 -2 0 16 27 16 33 0 4 -10 6 -10 6 0 1 6 5 12 11 12 5 0 7 -8 4 -17 -2 -10
1 -8 7 5 14 26 31 30 22 5 -5 -15 -3 -16 8 -6 15 15 33 17 24 4 -3 -5 -1 -13
5 -16 6 -4 9 -1 8 6 -2 6 3 14 11 17 10 3 11 0 5 -9 -6 -11 -5 -12 7 -2 24 19
85 21 73 1 -5 -7 -3 -8 6 -3 21 13 71 14 64 1 -3 -6 1 -3 9 7 9 11 18 14 21 8
4 -6 14 -7 23 -4 10 4 14 2 10 -4 -4 -7 0 -10 9 -9 8 1 19 8 24 15 5 9 10 10
14 2 4 -6 15 -7 30 -1 17 6 28 4 41 -8 10 -9 15 -12 11 -6 -3 7 1 15 10 18 8
3 13 2 10 -3 -3 -5 1 -11 9 -14 10 -4 12 -1 8 11 -6 15 -5 15 10 3 9 -7 17
-10 17 -5 0 5 11 10 25 10 14 1 22 -2 19 -7 -3 -5 2 -6 11 -3 10 4 14 13 11
23 -5 13 -4 13 8 -2 18 -23 25 -21 19 5 -5 22 -5 22 9 4 15 -19 15 -19 25 0 6
10 8 26 6 34 -4 13 -3 13 6 0 5 -8 7 -18 4 -24 -3 -5 -1 -6 5 -2 7 4 12 18 12
32 0 14 4 23 8 20 4 -2 9 5 9 17 2 17 0 19 -7 7 -7 -11 -10 -12 -10 -2 0 9 -8
11 -22 7 -21 -5 -21 -5 2 9 14 9 21 16 15 16 -5 1 -20 3 -33 6 -13 2 -21 0
-17 -5 3 -5 0 -13 -6 -17 -7 -4 -9 -3 -6 3 4 6 0 16 -8 23 -12 10 -16 9 -21
-4 -6 -15 -8 -15 -20 1 -13 17 -14 17 -7 -2 7 -19 6 -19 -19 -3 -25 16 -26 16
-21 -2 3 -12 0 -20 -6 -20 -7 0 -10 4 -7 9 3 5 -7 14 -23 19 -24 8 -32 7 -42
-5 -12 -13 -14 -13 -20 4 -7 17 -8 17 -8 -2 -1 -14 -4 -16 -13 -7 -9 9 -15 7
-25 -6 -8 -9 -12 -11 -8 -4 5 9 -9 11 -59 8 -48 -3 -63 -1 -60 8 6 15 -37 16
-48 1 -5 -6 -8 -5 -8 4 0 9 -4 10 -12 4 -7 -5 -19 -8 -25 -7 -7 1 -17 2 -23 3
-5 0 -7 9 -3 18 5 17 5 17 -8 1 -16 -20 -64 -14 -52 6 4 6 -2 4 -12 -4 -17
-14 -18 -13 -12 2 4 12 2 15 -8 11 -8 -3 -12 -10 -8 -16 3 -6 1 -7 -5 -3 -6 4
-9 12 -6 20 6 15 -25 18 -43 4 -7 -6 -14 -4 -19 3 -5 8 -3 9 6 4 8 -5 11 -4 7
3 -4 5 -17 8 -29 4 -14 -3 -19 -1 -14 6 5 8 2 10 -9 6 -8 -4 -21 -1 -29 5 -7
6 -16 8 -19 4 -13 -12 -7 13 6 26 10 11 9 12 -3 5 -25 -14 -42 -14 -36 1 3 8
0 17 -6 21 -7 4 -8 3 -4 -4 12 -19 0 -14 -33 15 -17 15 -31 33 -31 40 0 7 -5
13 -11 13 -5 0 -7 5 -3 12 5 8 2 9 -10 5 -12 -5 -15 -3 -9 6 11 18 13 38 2 31
-5 -3 -9 2 -9 11 0 9 -4 14 -8 11 -4 -2 -14 5 -22 17 -12 20 -12 21 4 8 14
-12 16 -12 10 3 -3 9 -10 16 -15 16 -14 0 -11 28 4 33 7 3 5 6 -5 6 -10 1 -18
6 -18 12 0 6 7 8 17 5 14 -6 14 -3 -3 15 -10 12 -13 19 -7 15 10 -5 11 -1 4
17 -5 14 -7 35 -4 47 5 18 3 21 -8 16 -10 -6 -10 -4 1 6 8 7 15 25 14 41 -1
15 3 27 8 27 5 0 7 -10 4 -22 -3 -13 -3 -17 0 -10 5 10 9 10 22 0 13 -12 14
-10 3 10 -6 12 -8 22 -2 22 5 0 12 -8 16 -17 6 -17 8 -17 21 2 14 19 15 18 10
-10 -5 -27 -4 -28 8 -12 12 15 14 16 20 2 4 -13 10 -14 26 -5 11 6 20 7 20 3
0 -4 5 -1 10 7 6 9 10 10 10 3 0 -16 57 -10 73 7 9 11 8 11 -7 0 -18 -14 -18
-14 -5 7 7 12 16 19 19 15 11 -15 30 -11 30 5 0 15 2 16 10 3 9 -15 11 -13 14
13 1 6 9 11 19 9 9 -2 16 2 15 9 -2 6 3 14 11 17 9 3 11 0 6 -8 -5 -9 -4 -11
3 -6 9 5 9 13 2 26 -8 16 -6 18 15 15 14 -1 28 2 32 8 3 6 1 7 -5 3 -6 -4 -10
1 -9 13 1 16 4 18 16 8 12 -10 13 -9 2 11 -9 18 -9 22 1 20 7 -2 12 5 12 14
-1 10 1 17 5 16 19 -2 24 3 11 12 -13 8 -13 11 -1 22 12 11 13 10 6 -2 -5 -9
-4 -12 1 -7 5 5 10 13 10 18 1 5 2 10 4 12 10 13 5 37 -8 38 -12 0 -10 3 6 9
24 10 29 19 10 16 -14 -1 -18 6 -18 32 0 15 2 15 11 2 9 -13 10 -13 6 0 -2 8
-11 14 -20 12 -16 -3 -17 13 -3 37 6 9 5 12 -1 8 -6 -4 -13 4 -15 18 -3 14 -1
25 5 25 6 0 7 3 4 6 -4 4 -13 1 -21 -5 -12 -10 -14 -9 -9 8 4 14 1 21 -9 21
-8 0 -23 10 -34 23 -19 22 -19 22 2 4 20 -17 34 -14 34 7 0 6 -4 5 -9 -3 -7
-10 -12 -8 -25 10 -9 13 -19 23 -21 22 -14 -8 -25 -1 -19 10 5 7 0 6 -11 -3
-15 -12 -17 -12 -10 -1 6 11 4 13 -7 8 -12 -4 -15 0 -11 16 3 15 2 18 -4 9 -8
-10 -15 -8 -35 7 -14 11 -28 17 -32 14 -3 -3 -6 -1 -6 5 0 7 -5 12 -11 12 -5
0 -7 -4 -4 -10 3 -5 -1 -10 -10 -10 -10 0 -13 5 -9 13 5 7 0 6 -11 -3 -15 -12
-17 -12 -10 -1 6 11 4 13 -7 8 -9 -3 -21 0 -28 6 -9 9 -11 9 -7 1 4 -7 0 -15
-9 -18 -8 -3 -13 -2 -10 3 3 5 -3 11 -13 14 -15 3 -18 1 -14 -12 3 -10 -4 -6
-18 9 -15 17 -20 19 -16 7z m201 -44 c4 -10 1 -11 -13 -4 -10 6 -22 7 -26 3
-5 -4 -5 -2 -2 4 9 15 35 13 41 -3z m-160 -84 c-2 -4 6 -7 19 -8 42 -1 56 -4
51 -13 -3 -5 -11 -5 -17 -2 -9 5 -9 3 0 -6 10 -11 15 -11 29 1 12 9 15 10 10
2 -5 -9 0 -13 16 -13 19 0 20 -2 8 -11 -12 -9 -11 -10 7 -6 16 4 20 1 16 -11
-4 -10 -2 -13 5 -8 7 4 12 1 12 -9 0 -9 -4 -13 -10 -10 -6 3 -7 -1 -3 -10 4
-12 8 -13 13 -5 6 10 12 10 26 0 11 -7 13 -10 4 -7 -11 3 -15 -2 -15 -19 1
-13 5 -27 10 -31 4 -5 5 -3 1 4 -3 6 -3 14 2 17 5 3 9 0 10 -7 2 -21 7 -42 15
-54 4 -6 2 -15 -4 -18 -6 -4 -8 -18 -5 -31 4 -14 2 -24 -4 -24 -6 0 -8 6 -5
13 4 6 -1 3 -9 -7 -11 -14 -13 -23 -5 -32 7 -8 5 -16 -5 -27 -8 -8 -12 -18 -8
-22 4 -5 1 -5 -6 -1 -11 6 -10 12 5 29 l18 22 -23 -19 c-12 -11 -20 -26 -18
-33 6 -15 -10 -27 -19 -13 -8 13 -25 3 -25 -13 0 -7 4 -6 11 3 8 12 10 12 7 1
-2 -8 -19 -16 -36 -17 -22 -2 -30 1 -25 9 4 7 0 7 -10 -1 -9 -8 -21 -11 -26
-8 -5 4 -12 2 -15 -3 -4 -5 5 -8 19 -6 14 1 28 -1 30 -5 3 -5 -6 -7 -20 -5
-15 1 -30 -4 -36 -14 -8 -14 -9 -13 -7 4 2 11 -1 20 -7 20 -5 0 -16 4 -22 8
-7 5 -17 6 -22 3 -5 -4 -11 -3 -14 1 -2 5 -3 3 -1 -3 1 -6 -4 -11 -12 -11 -8
0 -12 3 -9 5 3 3 -3 11 -13 19 -9 8 -11 12 -4 8 22 -11 13 2 -14 20 -15 9 -23
12 -20 6 11 -18 -6 -13 -20 7 -11 13 -13 14 -9 1 3 -9 -2 -22 -11 -30 -10 -8
-15 -9 -12 -4 4 6 3 17 -3 25 -7 12 -9 9 -9 -9 0 -24 0 -24 -15 -5 -14 18 -14
18 -10 -4 2 -12 0 -20 -5 -17 -5 3 -16 -5 -24 -17 -9 -12 -16 -17 -16 -11 0 6
7 16 15 23 8 7 15 18 15 24 0 6 -5 3 -11 -6 -5 -10 -16 -18 -24 -18 -8 0 -12
-9 -10 -25 2 -25 2 -25 -17 -8 -18 16 -19 16 -12 -2 6 -14 4 -17 -9 -12 -9 3
-16 3 -16 -1 4 -21 -2 -42 -12 -42 -5 0 -7 6 -3 13 4 7 3 9 -2 4 -9 -9 -10
-13 -13 -43 -1 -10 -7 -14 -17 -10 -8 3 -13 2 -9 -3 3 -5 -2 -16 -10 -25 -10
-10 -12 -17 -4 -21 7 -5 5 -13 -5 -24 -9 -10 -13 -21 -9 -26 5 -4 2 -5 -5 -1
-11 6 -10 12 4 27 9 10 13 19 8 19 -16 0 -34 -38 -27 -56 4 -11 2 -15 -4 -11
-13 8 -11 -19 2 -30 4 -4 5 -2 0 6 -5 10 -4 12 4 7 6 -4 9 -12 5 -17 -3 -5 -9
-7 -14 -4 -4 3 -14 -3 -21 -12 -10 -12 -10 -14 -1 -9 17 10 15 -10 -4 -28 -8
-9 -11 -16 -5 -16 16 0 13 -26 -4 -40 -10 -9 -12 -17 -5 -30 5 -9 6 -20 3 -24
-3 -3 -1 -6 6 -6 7 0 9 -5 6 -10 -4 -6 -9 -8 -13 -6 -4 2 -6 -14 -5 -37 2 -63
-6 -72 -32 -36 -13 17 -21 38 -18 47 5 11 3 13 -8 7 -8 -4 -11 -5 -7 0 4 4 2
15 -5 23 -9 13 -9 14 1 8 7 -4 12 -1 12 8 0 9 -8 16 -17 17 -12 1 -10 4 7 9
22 7 21 10 -9 14 -5 0 -13 5 -18 10 -5 5 -2 6 6 1 11 -6 13 -3 9 13 -4 13 -1
22 5 23 8 0 8 2 -1 6 -6 2 -9 10 -5 16 5 9 3 9 -8 0 -12 -10 -14 -8 -14 13 1
13 5 27 10 31 4 5 5 3 1 -4 -3 -6 -2 -14 3 -17 10 -7 9 20 -2 30 -4 4 -1 14 6
22 10 13 9 15 -4 10 -13 -5 -16 -2 -12 13 3 10 10 16 17 12 7 -4 6 -1 -1 7
-10 11 -10 17 0 29 9 11 9 13 0 8 -6 -4 -15 -3 -18 3 -4 6 -1 9 6 8 6 -2 14 3
17 11 3 10 0 11 -9 5 -10 -6 -10 -2 2 16 9 14 15 33 13 43 -1 9 2 17 6 17 5 0
7 9 5 20 -3 15 1 20 13 18 18 -3 19 3 6 37 -7 18 -6 19 9 6 15 -12 17 -12 11
3 -4 11 -2 16 7 14 9 -2 13 4 11 15 -2 9 2 17 9 17 8 0 8 4 -1 15 -10 12 -8
14 8 10 13 -2 19 2 18 13 -1 11 6 16 17 16 13 -2 15 1 7 11 -8 9 -5 14 10 18
11 3 20 13 20 22 0 11 5 15 15 11 13 -4 14 -2 5 14 -6 11 -7 20 -3 19 20 -3
34 2 28 10 -3 5 -1 12 5 16 5 3 10 1 10 -4 0 -6 4 -11 9 -11 5 0 7 10 5 23 -2
12 -2 16 2 10 4 -10 9 -9 21 2 8 8 18 13 22 11 4 -3 8 1 8 9 0 11 -4 12 -13 4
-8 -7 -14 -6 -20 2 -4 7 -3 9 3 6 6 -4 16 -1 22 7 6 7 23 12 37 10 22 -2 23 0
12 14 -10 12 -10 14 0 8 6 -4 12 -2 12 3 0 6 5 11 11 11 5 0 7 -6 4 -12 -4 -7
-1 -6 7 3 7 9 19 14 27 11 8 -3 11 0 7 6 -9 14 19 23 33 9 8 -8 9 -5 6 12 -3
15 0 19 8 14 20 -12 48 -11 37 2 -7 8 -5 12 5 12 8 0 15 -4 15 -9 0 -5 5 -6
10 -3 6 4 8 10 6 13 -2 4 13 7 34 7 21 0 36 -3 34 -6z m-437 -234 c0 -8 -4
-12 -9 -9 -5 3 -6 10 -3 15 9 13 12 11 12 -6z m817 -6 c-3 -5 -10 -7 -15 -3
-5 3 -7 10 -3 15 3 5 10 7 15 3 5 -3 7 -10 3 -15z m-990 -57 c3 -5 -1 -9 -9
-9 -8 0 -12 4 -9 9 3 4 7 8 9 8 2 0 6 -4 9 -8z m90 -58 c3 -8 2 -12 -4 -9 -6
3 -10 10 -10 16 0 14 7 11 14 -7z m-129 -4 c3 -5 -1 -10 -10 -10 -9 0 -13 5
-10 10 3 6 8 10 10 10 2 0 7 -4 10 -10z m510 -10 c-3 -5 -12 -10 -18 -10 -7 0
-6 4 3 10 19 12 23 12 15 0z m95 -40 c0 -5 -4 -10 -10 -10 -5 0 -10 5 -10 10
0 6 5 10 10 10 6 0 10 -4 10 -10z m-228 -374 c7 4 8 2 4 -4 -4 -7 -3 -12 3
-12 5 0 11 5 13 12 3 7 7 5 11 -6 4 -9 3 -15 -2 -12 -5 3 -15 -2 -22 -12 -13
-15 -12 -16 4 -3 9 7 17 10 17 6 0 -4 8 -1 17 6 9 8 14 9 10 3 -3 -6 3 -17 13
-24 14 -10 16 -17 9 -26 -7 -8 -6 -15 2 -20 8 -4 9 -3 5 4 -15 24 35 6 51 -19
9 -13 22 -28 27 -32 8 -6 7 -10 -1 -14 -7 -2 -13 -10 -13 -16 1 -7 10 -1 22
13 13 16 19 18 15 8 -7 -19 24 -43 39 -30 5 4 2 -1 -5 -11 -8 -9 -11 -20 -7
-24 3 -3 6 -2 6 3 0 5 9 10 19 10 11 0 17 -4 15 -8 -3 -5 5 -18 18 -29 13 -11
19 -18 13 -16 -5 3 -15 -1 -22 -8 -10 -11 -10 -15 0 -19 7 -3 -1 -3 -17 -1
-17 2 -37 -1 -45 -8 -10 -8 -13 -8 -8 -1 4 7 0 14 -8 18 -8 3 -15 2 -15 -3 0
-4 -14 -5 -31 -3 -22 3 -27 7 -18 13 10 6 8 9 -9 9 -13 0 -20 4 -17 10 3 6 -1
10 -9 10 -9 0 -16 7 -16 16 0 9 -5 12 -12 8 -7 -4 -10 -3 -5 1 4 5 1 18 -6 29
-7 12 -12 31 -11 43 1 12 -3 20 -8 17 -4 -3 -6 -10 -3 -15 4 -5 4 -9 1 -9 -3
0 -10 10 -17 21 -8 15 -8 19 0 15 6 -4 11 -2 11 3 0 6 -5 11 -10 11 -7 0 -6 8
1 23 11 20 11 21 -4 8 -15 -12 -17 -10 -13 18 2 17 0 34 -5 37 -5 3 -9 11 -8
17 0 9 2 8 6 -1 2 -6 10 -9 15 -6z m227 -9 c8 -10 7 -14 -2 -14 -8 0 -14 6
-14 14 0 7 1 13 2 13 2 0 8 -6 14 -13z m-689 -97 c0 -5 -2 -10 -4 -10 -3 0 -8
5 -11 10 -3 6 -1 10 4 10 6 0 11 -4 11 -10z m970 -110 c0 -5 -2 -10 -4 -10 -3
0 -8 5 -11 10 -3 6 -1 10 4 10 6 0 11 -4 11 -10z m-925 -38 c-3 -3 -11 0 -18
7 -9 10 -8 11 6 5 10 -3 15 -9 12 -12z m1391 -4 c5 -7 3 -8 -6 -3 -10 6 -12 4
-6 -11 5 -14 4 -16 -5 -7 -6 6 -8 16 -5 22 9 14 13 14 22 -1z"/>
<path d="M767 1429 c7 -7 15 -10 18 -7 3 3 -2 9 -12 12 -14 6 -15 5 -6 -5z"/>
<path d="M990 1251 c0 -6 5 -13 11 -17 8 -4 7 -9 -2 -15 -10 -6 -10 -9 -2 -9
16 0 26 17 13 25 -6 4 -8 11 -5 16 4 5 1 9 -4 9 -6 0 -11 -4 -11 -9z"/>
<path d="M254 982 c4 -7 2 -21 -5 -30 -12 -15 -11 -15 6 0 16 15 17 20 6 30
-11 11 -13 10 -7 0z"/>
<path d="M285 550 c-4 -6 -11 -7 -17 -4 -6 4 -6 -1 1 -14 6 -12 17 -24 24 -28
8 -5 7 -2 -2 9 -11 14 -11 20 -1 32 7 8 10 15 7 15 -3 0 -9 -5 -12 -10z"/>
<path d="M650 564 c0 -5 7 -18 15 -28 8 -11 15 -16 15 -10 0 5 -7 18 -15 28
-8 11 -15 16 -15 10z"/>
<path d="M591 483 c7 -12 15 -20 18 -17 3 2 -3 12 -13 22 -17 16 -18 16 -5 -5z"/>
<path d="M621 444 c0 -11 3 -14 6 -6 3 7 2 16 -1 19 -3 4 -6 -2 -5 -13z"/>
<path d="M770 430 c0 -5 5 -10 11 -10 5 0 7 5 4 10 -3 6 -8 10 -11 10 -2 0 -4
-4 -4 -10z"/>
<path d="M790 410 c-9 -6 -10 -10 -3 -10 6 0 15 5 18 10 8 12 4 12 -15 0z"/>
<path d="M96 978 c3 -5 10 -6 15 -3 13 9 11 12 -6 12 -8 0 -12 -4 -9 -9z"/>
<path d="M730 850 c0 -5 5 -10 11 -10 5 0 7 5 4 10 -3 6 -8 10 -11 10 -2 0 -4
-4 -4 -10z"/>
<path d="M827 569 c7 -7 15 -10 18 -7 3 3 -2 9 -12 12 -14 6 -15 5 -6 -5z"/>
<path d="M1135 430 c3 -5 8 -10 11 -10 2 0 4 5 4 10 0 6 -5 10 -11 10 -5 0 -7
-4 -4 -10z"/>
<path d="M1310 410 c0 -5 5 -10 11 -10 5 0 7 5 4 10 -3 6 -8 10 -11 10 -2 0
-4 -4 -4 -10z"/>
<path d="M370 266 c0 -2 7 -9 15 -16 13 -11 14 -10 9 4 -5 14 -24 23 -24 12z"/>
<path d="M616 252 c-3 -5 1 -9 9 -9 8 0 12 4 9 9 -3 4 -7 8 -9 8 -2 0 -6 -4
-9 -8z"/>
</g>
</svg>
